<?xml version="1.0" encoding="UTF-8"?>
<svg xmlns="http://www.w3.org/2000/svg" xmlns:xlink="http://www.w3.org/1999/xlink" viewBox="0 0 48 48" version="1.1" width="480px" height="480px">
<g id="surface1">
<path style=" fill:#FF1744;" d="M 21.398438 33.398438 L 19.800781 29.101563 C 19.800781 29.101563 17.199219 32 13.199219 32 C 9.800781 32 7 29 7 24.199219 C 7 18.101563 10.398438 16 13.5 16 C 17.898438 16 19.300781 18.800781 20.601563 22.398438 L 22.199219 27.300781 C 23.800781 32.101563 26.800781 36 35.601563 36 C 41.800781 36 46.101563 34.101563 46.101563 29.199219 C 46.101563 25.199219 43.800781 23.101563 39.398438 22.101563 L 36.199219 21.398438 C 34 20.898438 33.199219 19.898438 33.199219 18.5 C 33.199219 16.800781 34.898438 16 37.101563 16 C 39.5 16 40.898438 16.898438 41.101563 19 L 46.101563 18 C 45.699219 13.5 42.398438 12 37.199219 12 C 32.699219 12 28.101563 13.601563 28.101563 19 C 28.101563 22.398438 29.898438 24.601563 34.101563 25.601563 L 37.5 26.398438 C 40 26.898438 41 28 41 29.398438 C 41 31.199219 39 32 35.601563 32 C 30.5 32 28.398438 29.398438 27.199219 25.800781 L 25.5 20.898438 C 23.398438 14.398438 20 12 13.300781 12 C 5.898438 12 2 16.601563 2 24.398438 C 2 31.898438 5.898438 36 13 36 C 18.699219 36 21.398438 33.398438 21.398438 33.398438 Z "/>
</g>
</svg>
