<?xml version="1.0" encoding="utf-8"?>
<!-- Generator: Adobe Illustrator 18.0.0, SVG Export Plug-In . SVG Version: 6.00 Build 0)  -->
<!DOCTYPE svg PUBLIC "-//W3C//DTD SVG 1.1//EN" "http://www.w3.org/Graphics/SVG/1.1/DTD/svg11.dtd">
<svg version="1.1" id="Layer_1" xmlns="http://www.w3.org/2000/svg" xmlns:xlink="http://www.w3.org/1999/xlink" x="0px" y="0px"
	 viewBox="0 0 147.7 141.2" enable-background="new 0 0 147.7 141.2" xml:space="preserve">
<path fill="#FFFFFF" d="M44.8,75.8c7.2,7.8,17.6,12.8,29.1,12.8c5.9,0,11.5-1.3,16.5-3.6L63,57.6L44.8,75.8z"/>
<path fill="#FFFFFF" d="M62.8,41.1L42.1,61.8L39.3,59l21.8-21.8h0l25.5-25.5c-4-1.4-8.3-2.1-12.8-2.1C52,9.6,34.3,27.2,34.3,49.1
	c0,8.9,2.9,17.1,7.9,23.7l20.7-20.7l1.4,1.4L94,83c0.6-0.3,1.2-0.7,1.7-1.1L63,49.2L43.1,69.1l-2.8-2.8l22.7-22.7l1.4,1.4l34.5,34.5
	c0.5-0.4,1-0.9,1.5-1.3L63.1,41.1L62.8,41.1z"/>
<path fill="#FFFFFF" d="M103.2,75.5c6.3-7,10.2-16.3,10.2-26.5c0-15.8-9.3-29.5-22.8-35.8L65.7,38.1L103.2,75.5z M75.3,45.3
	l-2.8-2.8L92,23l2.8,2.8L75.3,45.3z M93.8,18.4L71.2,41l-2.8-2.8l22.6-22.6L93.8,18.4z"/>
<g>
	<g>
		<path fill="#FFFFFF" d="M73.8,98.1c-27.1,0-49.1-22-49.1-49.1C24.8,22,46.8,0,73.8,0s49.1,22,49.1,49.1
			C122.9,76.1,100.9,98.1,73.8,98.1z M73.8,4.9c-24.3,0-44.1,19.8-44.1,44.1s19.8,44.1,44.1,44.1S118,73.4,118,49.1
			S98.2,4.9,73.8,4.9z"/>
	</g>
</g>
<g>
	<path fill="#FFFFFF" d="M7.7,141.2v-21.3H0V115h20.9v4.9h-7.6v21.3H7.7z"/>
	<path fill="#FFFFFF" d="M45.2,141.2l-5.1-9.3H36v9.3h-5.6V115h12.2c5.5,0,8.8,3.6,8.8,8.4c0,4.6-2.9,7.1-5.7,7.8l5.9,10H45.2z
		 M45.8,123.4c0-2.2-1.7-3.5-3.9-3.5H36v7.1h5.8C44.1,127,45.8,125.6,45.8,123.4z"/>
	<path fill="#FFFFFF" d="M81,141.2l-1.6-4.4H68.2l-1.6,4.4h-6.4L70.3,115h7l10.1,26.2H81z M73.8,120.6l-4.1,11.3h8.2L73.8,120.6z"/>
	<path fill="#FFFFFF" d="M111.9,141.2l-7.9-10.5l-2,2.4v8h-5.6V115h5.6v11.7l9.3-11.7h6.9l-10.4,12.3l11.1,13.9H111.9z"/>
	<path fill="#FFFFFF" d="M134.4,141.2v-21.3h-7.7V115h20.9v4.9h-7.6v21.3H134.4z"/>
</g>
</svg>
